<svg xmlns="http://www.w3.org/2000/svg" xmlns:xlink="http://www.w3.org/1999/xlink" width="27.191" height="27.218" viewBox="0 0 27.191 27.218">
  <defs>
    <clipPath id="clip-path">
      <rect id="Rectangle_44" data-name="Rectangle 44" width="27.191" height="27.218" fill="#f5f5f5"/>
    </clipPath>
  </defs>
  <g id="Group_33" data-name="Group 33" clip-path="url(#clip-path)">
    <path id="Path_75" data-name="Path 75" d="M29.647,31.111h0a1.36,1.36,0,1,1,1.36-1.36,1.359,1.359,0,0,1-1.36,1.36" transform="translate(-16.078 -16.138)" fill="#f5f5f5"/>
    <path id="Path_76" data-name="Path 76" d="M50.563,31.111h0a1.36,1.36,0,1,1,1.36-1.36,1.359,1.359,0,0,1-1.36,1.36" transform="translate(-27.967 -16.138)" fill="#f5f5f5"/>
    <path id="Path_77" data-name="Path 77" d="M40.1,31.111h0a1.36,1.36,0,1,1,1.36-1.36,1.359,1.359,0,0,1-1.36,1.36" transform="translate(-22.023 -16.138)" fill="#f5f5f5"/>
    <path id="Path_78" data-name="Path 78" d="M8.6,51.985h0a1.36,1.36,0,1,1,1.36-1.36,1.359,1.359,0,0,1-1.36,1.36" transform="translate(-4.118 -28.003)" fill="#f5f5f5"/>
    <path id="Path_79" data-name="Path 79" d="M29.521,51.985h0a1.36,1.36,0,1,1,1.36-1.36,1.359,1.359,0,0,1-1.36,1.36" transform="translate(-16.007 -28.003)" fill="#f5f5f5"/>
    <path id="Path_80" data-name="Path 80" d="M19.063,51.985h0a1.36,1.36,0,1,1,1.36-1.36,1.359,1.359,0,0,1-1.36,1.36" transform="translate(-10.062 -28.003)" fill="#f5f5f5"/>
    <path id="Path_81" data-name="Path 81" d="M8.6,41.527h0a1.36,1.36,0,1,1,1.36-1.36,1.359,1.359,0,0,1-1.36,1.36" transform="translate(-4.118 -22.058)" fill="#f5f5f5"/>
    <path id="Path_82" data-name="Path 82" d="M29.521,41.527h0a1.36,1.36,0,1,1,1.36-1.36,1.359,1.359,0,0,1-1.36,1.36" transform="translate(-16.007 -22.058)" fill="#f5f5f5"/>
    <path id="Path_83" data-name="Path 83" d="M19.063,41.527h0a1.36,1.36,0,1,1,1.36-1.36,1.359,1.359,0,0,1-1.36,1.36" transform="translate(-10.062 -22.058)" fill="#f5f5f5"/>
    <path id="Path_84" data-name="Path 84" d="M50.563,41.527h0a1.36,1.36,0,1,1,1.36-1.36,1.359,1.359,0,0,1-1.36,1.36" transform="translate(-27.967 -22.058)" fill="#f5f5f5"/>
    <path id="Path_85" data-name="Path 85" d="M40.1,41.527h0a1.36,1.36,0,1,1,1.36-1.36,1.359,1.359,0,0,1-1.36,1.36" transform="translate(-22.023 -22.058)" fill="#f5f5f5"/>
    <path id="Path_86" data-name="Path 86" d="M29.323,4.514h0A1.418,1.418,0,0,1,27.909,3.1V1.414a1.414,1.414,0,0,1,2.828,0V3.1a1.418,1.418,0,0,1-1.414,1.414" transform="translate(-15.863 0)" fill="#f5f5f5"/>
    <path id="Path_87" data-name="Path 87" d="M8.155,4.64h0A1.418,1.418,0,0,1,6.741,3.226V1.54a1.414,1.414,0,1,1,2.828,0V3.226A1.418,1.418,0,0,1,8.155,4.64" transform="translate(-3.832 -0.072)" fill="#f5f5f5"/>
    <path id="Path_88" data-name="Path 88" d="M50.491,4.64h0a1.418,1.418,0,0,1-1.414-1.414V1.54a1.414,1.414,0,1,1,2.828,0V3.226A1.418,1.418,0,0,1,50.491,4.64" transform="translate(-27.895 -0.072)" fill="#f5f5f5"/>
    <path id="Path_89" data-name="Path 89" d="M24.708,8.064V9.288a.654.654,0,0,1-.653.653H21.136a.654.654,0,0,1-.653-.653V8.064H15.572V9.288a.654.654,0,0,1-.653.653H12a.654.654,0,0,1-.653-.653V8.064H6.436V9.288a.654.654,0,0,1-.653.653H2.864a.654.654,0,0,1-.653-.653V8.064H0V31.8H27.191V8.064Zm.58,22.052H1.9V14.749H25.288Z" transform="translate(0 -4.584)" fill="#f5f5f5"/>
  </g>
</svg>
