<svg id="Group_55" data-name="Group 55" xmlns="http://www.w3.org/2000/svg" xmlns:xlink="http://www.w3.org/1999/xlink" width="28" height="28" viewBox="0 0 28 28">
  <defs>
    <clipPath id="clip-path">
      <rect id="Rectangle_48" data-name="Rectangle 48" width="28" height="28" fill="#fff"/>
    </clipPath>
  </defs>
  <g id="Group_54" data-name="Group 54" clip-path="url(#clip-path)">
    <path id="Path_93" data-name="Path 93" d="M111.1,465.041H95.052a.552.552,0,0,1-.552-.552v-.938a.552.552,0,0,1,.552-.552H111.1a.552.552,0,0,1,.552.552v.938a.552.552,0,0,1-.552.552" transform="translate(-89.287 -437.46)" fill="#fff"/>
    <path id="Path_94" data-name="Path 94" d="M300.706,283.1a1.1,1.1,0,1,1-1.1-1.1,1.1,1.1,0,0,1,1.1,1.1" transform="translate(-282.034 -266.444)" fill="#fff"/>
    <path id="Path_95" data-name="Path 95" d="M26.257,137v7.226a.552.552,0,0,1-.552.552h-.772v1.908a.52.52,0,0,1-.52.52H10.724a.52.52,0,0,1-.52-.52V137H0v14.287H27.581V137ZM13.79,151.121a1.379,1.379,0,1,1,1.379-1.379,1.379,1.379,0,0,1-1.379,1.379" transform="translate(0 -129.443)" fill="#fff"/>
    <path id="Path_96" data-name="Path 96" d="M193.054,2.7a.552.552,0,0,1,.552-.552h6.123V.52a.52.52,0,0,0-.52-.52H185.52a.52.52,0,0,0-.52.52V7.557h8.054Z" transform="translate(-174.795)" fill="#fff"/>
    <path id="Path_97" data-name="Path 97" d="M453.738,37.32h-.827V32.465a.138.138,0,0,0-.138-.138H452V31.5h.772a.966.966,0,0,1,.965.965Z" transform="translate(-427.067 -29.762)" fill="#fff"/>
    <path id="Path_98" data-name="Path 98" d="M396.655,248.827a.827.827,0,1,0-1.543.414h1.432a.823.823,0,0,0,.112-.414" transform="translate(-373.211 -234.32)" fill="#fff"/>
    <path id="Path_99" data-name="Path 99" d="M328.987,144.364a.826.826,0,0,1-1.432,0h-3.09a.138.138,0,0,1-.138-.138V137H323.5v7.226a.966.966,0,0,0,.965.965h6.123v-.827Z" transform="translate(-305.655 -129.443)" fill="#fff"/>
  </g>
</svg>
