<svg xmlns="http://www.w3.org/2000/svg" xmlns:xlink="http://www.w3.org/1999/xlink" width="31.732" height="39.917" viewBox="0 0 31.732 39.917">
  <defs>
    <clipPath id="clip-path">
      <rect id="Rectangle_8" data-name="Rectangle 8" width="31.732" height="39.917" fill="#fff"/>
    </clipPath>
  </defs>
  <g id="Group_5" data-name="Group 5" clip-path="url(#clip-path)">
    <path id="Path_2" data-name="Path 2" d="M29.682,51.47V50.242l-1.89-.36c-.015-.084-.03-.171-.049-.257a5.777,5.777,0,0,0-.939-2.132L27.886,45.9l-.868-.868-1.59,1.082a5.849,5.849,0,0,0-2.389-.989l-.358-1.889H21.453l-.36,1.89c-.084.015-.171.03-.257.049a5.786,5.786,0,0,0-2.132.939l-1.588-1.082-.868.868,1.082,1.59a5.849,5.849,0,0,0-.989,2.389l-1.889.358V51.47l1.89.36c.015.084.03.171.049.257a5.786,5.786,0,0,0,.939,2.132l-1.082,1.588.868.868,1.59-1.082a5.841,5.841,0,0,0,2.389.989l.358,1.889h1.227l.36-1.89c.084-.015.171-.03.257-.049a5.777,5.777,0,0,0,2.132-.939l1.588,1.082.868-.868L26.8,54.217a5.841,5.841,0,0,0,.989-2.389ZM22.03,54.831a4.012,4.012,0,1,1,4.012-4.012,4.013,4.013,0,0,1-4.012,4.012" transform="translate(-6.201 -18.554)" fill="#fff"/>
    <path id="Path_3" data-name="Path 3" d="M27.517,15.328l-.05-.019c-.112-.044-.226-.086-.34-.128l-.061-.022c-.12-.043-.242-.085-.364-.126L26.615,15c-.126-.041-.251-.081-.378-.119a8.179,8.179,0,1,0-9.341.022c-.124.038-.248.077-.371.118l-.083.027c-.122.041-.243.083-.363.127l-.038.014q-.176.064-.351.133l-.045.017c-.124.05-.248.1-.371.154l-.014.006a9.921,9.921,0,0,0,12.652-.014l-.034-.015c-.119-.05-.24-.1-.361-.147m-9.649.157.1.048-.1-.048m1.355.539c.067.02.135.039.2.057l-.059-.016-.143-.041m.239.067.2.051-.2-.051" transform="translate(-5.737 0)" fill="#fff"/>
    <path id="Path_4" data-name="Path 4" d="M31.732,39.325c-.017-.088-.034-.176-.053-.264-.006-.031-.013-.062-.02-.092-.012-.057-.024-.113-.037-.17l-.026-.11-.035-.151-.029-.116c-.012-.048-.024-.1-.037-.143s-.021-.079-.031-.119-.025-.092-.038-.139-.022-.08-.034-.12-.026-.091-.04-.137-.023-.08-.035-.12l-.043-.136c-.012-.039-.025-.078-.037-.118s-.031-.094-.046-.14l-.037-.112c-.019-.055-.038-.11-.058-.164s-.04-.112-.061-.167-.038-.105-.058-.157l-.045-.116c-.017-.043-.033-.086-.05-.129s-.033-.081-.049-.121-.033-.082-.05-.123-.034-.082-.051-.122l-.051-.12-.054-.122-.053-.118-.056-.122c-.018-.039-.036-.077-.054-.115l-.058-.122L30.35,35.2l-.061-.121-.058-.112-.062-.12c-.02-.038-.041-.076-.061-.114-.04-.074-.08-.148-.121-.222l-.062-.111-.068-.118-.063-.107-.07-.118-.064-.106-.072-.116-.065-.1-.074-.115-.067-.1-.076-.115-.068-.1-.078-.114-.07-.1c-.026-.038-.053-.076-.08-.114l-.07-.1-.082-.112-.07-.093q-.081-.109-.165-.216l-.071-.092-.087-.108-.075-.094-.088-.107-.077-.092-.089-.105-.079-.092-.091-.1-.08-.091-.092-.1c-.027-.03-.055-.06-.082-.09l-.094-.1-.083-.088-.1-.1-.085-.086-.1-.1-.086-.084c-.062-.061-.124-.121-.187-.181l-.089-.084-.1-.092-.091-.083-.1-.09-.093-.082-.1-.088-.094-.081-.1-.087-.1-.079-.1-.085-.1-.078-.1-.083-.1-.078-.105-.08c-.034-.027-.07-.053-.1-.079l-.1-.077-.122-.087-.172-.122-.12-.084-.1-.07-.112-.075-.107-.07-.111-.072-.109-.069-.112-.07-.11-.067-.115-.069-.109-.064-.118-.069-.108-.062-.124-.069-.105-.057-.135-.072-.1-.051-.122-.062-.389.309a10.916,10.916,0,0,1-13.89.016l-.39-.308L8.461,28l-.067.035-.147.078-.082.044-.14.077-.087.049-.135.078-.089.051-.132.078-.089.054-.131.08-.087.055-.131.083-.083.054-.133.087-.066.045c-.1.066-.2.134-.293.2l-.051.036-.12.087-.089.065-.114.084-.093.07-.11.085-.095.074-.107.084-.1.078-.1.085-.1.081-.1.084-.1.084-.1.084-.1.09L5,30.4l-.114.105-.076.07-.182.174-.073.071-.112.111-.078.08-.1.105-.079.083-.1.106-.078.084-.1.108-.077.084-.1.111-.073.084-.1.116c-.023.027-.046.053-.068.081s-.071.084-.106.127l-.059.072c-.043.053-.085.105-.127.158l-.035.044-.16.207-.03.039-.126.169-.05.069L2.7,33l-.055.079-.094.135-.057.083-.09.134-.055.084-.088.136-.053.083c-.03.047-.059.095-.089.143l-.049.079c-.031.051-.062.1-.093.155l-.041.069-.11.19L1.8,34.41q-.066.116-.13.234l0,.006q-.061.112-.12.225l-.033.063-.087.171-.039.079-.077.157-.041.086c-.024.051-.048.1-.071.152l-.041.089c-.023.051-.046.1-.069.153l-.039.089-.067.157-.037.087c-.023.055-.046.111-.068.167L.849,36.4c-.026.065-.051.13-.075.195-.007.018-.014.034-.02.052-.063.166-.123.334-.18.5L.55,37.22c-.02.061-.041.122-.06.183-.01.03-.019.059-.028.089q-.027.082-.051.164l-.029.1c-.015.053-.031.106-.046.159-.01.034-.019.068-.029.1-.015.053-.029.1-.043.157l-.027.1c-.014.053-.027.105-.04.158l-.026.1c-.013.054-.026.109-.039.164l-.022.1c-.014.059-.026.12-.039.18l-.018.083c-.018.088-.036.176-.053.264a18.16,18.16,0,0,0,6.089,4.934,9.753,9.753,0,0,1,19.5.027,18.183,18.183,0,0,0,6.141-4.961" transform="translate(0 -11.995)" fill="#fff"/>
  </g>
</svg>
