<svg xmlns="http://www.w3.org/2000/svg" xmlns:xlink="http://www.w3.org/1999/xlink" width="32.111" height="25.432" viewBox="0 0 32.111 25.432">
  <defs>
    <clipPath id="clip-path">
      <rect id="Rectangle_53" data-name="Rectangle 53" width="32.111" height="25.432" fill="#fff"/>
    </clipPath>
  </defs>
  <g id="Group_65" data-name="Group 65" clip-path="url(#clip-path)">
    <path id="Path_111" data-name="Path 111" d="M33.152,23.279h4.915a5.526,5.526,0,0,0-4.915-4.915Z" transform="translate(-16.518 -9.15)" fill="#fff"/>
    <path id="Path_112" data-name="Path 112" d="M27.093,25.669H24.91V18.778A5.524,5.524,0,1,0,31.8,25.669Z" transform="translate(-10.46 -9.356)" fill="#fff"/>
    <path id="Path_113" data-name="Path 113" d="M8,6.615H6.912V1.927A1.927,1.927,0,0,1,8.839,0H9.93V4.688A1.927,1.927,0,0,1,8,6.615" transform="translate(-3.444 0)" fill="#fff"/>
    <path id="Path_114" data-name="Path 114" d="M30.084,6.615H28.992V1.927A1.927,1.927,0,0,1,30.919,0H32.01V4.688a1.927,1.927,0,0,1-1.927,1.927" transform="translate(-14.446 0)" fill="#fff"/>
    <path id="Path_115" data-name="Path 115" d="M30.185,9.088h-.9v.128a2.572,2.572,0,0,1-2.569,2.569H24.983v-2.7H18.207v.128a2.572,2.572,0,0,1-2.569,2.569H13.9v-2.7H7.129v.128A2.572,2.572,0,0,1,4.56,11.785H2.826v-2.7h-.9A1.927,1.927,0,0,0,0,11.015V28.034A1.927,1.927,0,0,0,1.927,29.96H30.185a1.927,1.927,0,0,0,1.927-1.927V11.015a1.927,1.927,0,0,0-1.927-1.927M26.677,25.95a1.312,1.312,0,0,1-1.313,1.313H6.747A1.312,1.312,0,0,1,5.434,25.95V13.933A1.312,1.312,0,0,1,6.747,12.62H25.364a1.312,1.312,0,0,1,1.313,1.313Z" transform="translate(0 -4.528)" fill="#fff"/>
    <path id="Path_116" data-name="Path 116" d="M52.164,6.615H51.072V1.927A1.927,1.927,0,0,1,53,0H54.09V4.688a1.927,1.927,0,0,1-1.927,1.927" transform="translate(-25.447 0)" fill="#fff"/>
  </g>
</svg>
