<svg xmlns="http://www.w3.org/2000/svg" xmlns:xlink="http://www.w3.org/1999/xlink" width="34.79" height="25.081" viewBox="0 0 34.79 25.081">
  <defs>
    <clipPath id="clip-path">
      <rect id="Rectangle_18" data-name="Rectangle 18" width="34.79" height="25.081" fill="#fff"/>
    </clipPath>
  </defs>
  <g id="Group_26" data-name="Group 26" transform="translate(0 0)">
    <g id="Group_25" data-name="Group 25" transform="translate(0 0)" clip-path="url(#clip-path)">
      <path id="Path_59" data-name="Path 59" d="M45.452,33.563,32.38,39.373a1.661,1.661,0,0,1-1.361-.006l-13.046-5.93a1.758,1.758,0,0,0-.035.348v2.853a7.63,7.63,0,0,1,1.174.848,3.971,3.971,0,0,1-.793,6.339c-.076.042-.155.081-.234.119a1.739,1.739,0,0,0,1.593,1.043h24.05a1.74,1.74,0,0,0,1.74-1.74V33.785a1.744,1.744,0,0,0-.016-.222" transform="translate(-10.678 -19.905)" fill="#fff"/>
      <path id="Path_60" data-name="Path 60" d="M48.981,30.045q-.98,0-1.511,1.378a8.17,8.17,0,0,0-.53,2.961c0,.093.007.181.015.268l1.338.608a1.66,1.66,0,0,0,1.021.116,6.314,6.314,0,0,0,.463-1.286,9.49,9.49,0,0,0,.338-2.431,2.032,2.032,0,0,0-.306-1.169.954.954,0,0,0-.828-.446" transform="translate(-27.943 -17.886)" fill="#fff"/>
      <path id="Path_61" data-name="Path 61" d="M49.815,29.6a5.57,5.57,0,0,0,.165-1.366,4.547,4.547,0,0,0-1.234-3.315,4.313,4.313,0,0,0-3.234-1.266,5.039,5.039,0,0,0-3.833,1.6,5.986,5.986,0,0,0-1.511,4.279c0,.021,0,.041,0,.062l1.068.485a6.438,6.438,0,0,1,1.007-3.532A2.9,2.9,0,0,1,44.7,24.986a1.938,1.938,0,0,1,1.045.289,2.5,2.5,0,0,1,.812.868l.129-.916h1.591L47.4,30.67Z" transform="translate(-23.912 -14.08)" fill="#fff"/>
      <path id="Path_62" data-name="Path 62" d="M33.772,13.646a3.967,3.967,0,0,1-5.12,2.162L23.1,19.5l5.737,2.607a7.539,7.539,0,0,1,1.7-4.534A5.872,5.872,0,0,1,35.317,15.5a5.675,5.675,0,0,1,2.981.7,5.65,5.65,0,0,1,2.708,5.075c0,.272-.017.531-.042.783l5.76-2.561L35.461,12.18a1.194,1.194,0,0,0-1.362.007l-.022.014a3.781,3.781,0,0,1-.3,1.444" transform="translate(-13.749 -7.126)" fill="#fff"/>
      <path id="Path_63" data-name="Path 63" d="M7.259,16.733a6.521,6.521,0,0,0-1.942-.874,12.6,12.6,0,0,1,6.613-9.592A8.761,8.761,0,0,0,14.6,8.548c.1.049.2.093.3.133l5.425-3.606a3.964,3.964,0,0,0-.062-.807C19.87,2.112,16.3-.354,14.141.043A17.258,17.258,0,0,0,.287,20.136c.4,2.157,3.968,4.623,6.125,4.227a3.979,3.979,0,0,0,1-.325,1.73,1.73,0,0,1-.148-.7Z" transform="translate(0 0)" fill="#fff"/>
    </g>
  </g>
</svg>
