<svg xmlns="http://www.w3.org/2000/svg" xmlns:xlink="http://www.w3.org/1999/xlink" width="36.322" height="33.469" viewBox="0 0 36.322 33.469">
  <defs>
    <clipPath id="clip-path">
      <rect id="Rectangle_12" data-name="Rectangle 12" width="36.322" height="33.469" fill="#fff"/>
    </clipPath>
  </defs>
  <g id="Group_14" data-name="Group 14" transform="translate(-1.09 -1.005)">
    <g id="Group_13" data-name="Group 13" transform="translate(1.09 1.005)" clip-path="url(#clip-path)">
      <path id="Path_24" data-name="Path 24" d="M34.408,46.266l-5.832-4.2a1.453,1.453,0,0,1,1.7-2.358l5.832,4.2a1.453,1.453,0,0,1-1.7,2.358" transform="translate(-9.272 -13.07)" fill="#fff"/>
      <path id="Path_25" data-name="Path 25" d="M31.457,31.543a8.834,8.834,0,0,1,3.159-6.7s2.907-3.159,3.16-3.285S40.05,20.8,39.8,23.077l-2.653,3.791s-.126.253.126.126l4.549-4.676A37.047,37.047,0,0,0,44.725,15.5a1.048,1.048,0,0,1,1.137-.758s.759,0,.885,1.011a40.307,40.307,0,0,1-2.275,8.466l-3.791,6.95-3.421,4.555Z" transform="translate(-10.425 -4.881)" fill="#fff"/>
      <path id="Path_26" data-name="Path 26" d="M15.591,45.7l5.832-4.2a1.453,1.453,0,0,0-1.7-2.358l-5.832,4.2a1.453,1.453,0,0,0,1.7,2.358" transform="translate(-4.405 -12.882)" fill="#fff"/>
      <path id="Path_27" data-name="Path 27" d="M15.29,30.976a8.837,8.837,0,0,0-3.159-6.7s-2.907-3.159-3.16-3.285S6.7,20.236,6.95,22.51L9.6,26.3s.126.253-.126.126L4.929,21.752a37.066,37.066,0,0,1-2.907-6.824A1.048,1.048,0,0,0,.884,14.17s-.758,0-.884,1.011a40.307,40.307,0,0,0,2.275,8.466L6.066,30.6l3.421,4.555Z" transform="translate(0 -4.693)" fill="#fff"/>
      <path id="Path_28" data-name="Path 28" d="M23.447,7.975H22.231a.062.062,0,0,1-.062-.063,1.549,1.549,0,0,1,1.637-1.579h.061c1.769,0,1.643,1.39,1.643,1.39l0,1.258a.137.137,0,0,0,.137.137h.443a.113.113,0,0,1,.113.113v1.124a.112.112,0,0,1-.106.113l-.459.028a.137.137,0,0,0-.129.137v.344a.778.778,0,0,0,.452.713,1.05,1.05,0,0,0,1.251-.235l.005-.007c.04-.05.558-.717-.291-.925a.115.115,0,0,1-.09-.111l0-1.163a.113.113,0,0,1,.12-.114,1.784,1.784,0,0,1,1.724,1.325,1.646,1.646,0,0,1,.048.417v.314a2.265,2.265,0,0,1-.552,1.51,1.767,1.767,0,0,1-.812.533,1.314,1.314,0,0,1-.378.049h-.871a1.9,1.9,0,0,1-1.872-1.893v-.749a.138.138,0,0,0-.138-.138H23.6a.114.114,0,0,1-.114-.114V9.225a.114.114,0,0,1,.114-.114h.507a.137.137,0,0,0,.138-.137V8.1a.52.52,0,0,0-.08-.277c-.128-.2-.363-.295-.663.11a.074.074,0,0,1-.056.037" transform="translate(-7.348 -2.099)" fill="#fff"/>
      <path id="Path_29" data-name="Path 29" d="M23.375,15.29A7.645,7.645,0,1,1,31.02,7.645a7.653,7.653,0,0,1-7.645,7.645m0-13.9A6.255,6.255,0,1,0,29.63,7.645,6.262,6.262,0,0,0,23.375,1.39" transform="translate(-5.214 0)" fill="#fff"/>
    </g>
  </g>
</svg>
