<svg xmlns="http://www.w3.org/2000/svg" xmlns:xlink="http://www.w3.org/1999/xlink" width="30.252" height="20.375" viewBox="0 0 30.252 20.375">
  <defs>
    <clipPath id="clip-path">
      <rect id="Rectangle_49" data-name="Rectangle 49" width="30.252" height="20.374" fill="#fff"/>
    </clipPath>
  </defs>
  <g id="Group_58" data-name="Group 58" transform="translate(-10 6.102)">
    <g id="Group_57" data-name="Group 57" transform="translate(10 -6.102)" clip-path="url(#clip-path)">
      <path id="Path_100" data-name="Path 100" d="M28.785,20.374H1.467A1.469,1.469,0,0,1,0,18.907V1.466A1.469,1.469,0,0,1,1.467,0H28.785a1.468,1.468,0,0,1,1.467,1.466V18.907a1.469,1.469,0,0,1-1.467,1.467M1.467.954a.514.514,0,0,0-.513.513V18.907a.513.513,0,0,0,.513.513H28.785a.513.513,0,0,0,.513-.513V1.466a.514.514,0,0,0-.513-.513Z" transform="translate(0 0)" fill="#fff"/>
      <path id="Path_101" data-name="Path 101" d="M20.707,21.678a.608.608,0,0,1-.453-1.012l4.059-4.55,4.059,4.55a.608.608,0,0,1-.907.809l-3.152-3.534-3.152,3.534a.608.608,0,0,1-.454.2" transform="translate(-6.542 -5.245)" fill="#fff"/>
      <path id="Path_102" data-name="Path 102" d="M15.476,22.582a.787.787,0,0,1-.6-.274l-4.715-5.476L5.448,22.308a.788.788,0,1,1-1.195-1.029l5.91-6.863,5.91,6.863a.789.789,0,0,1-.6,1.3" transform="translate(-1.322 -4.692)" fill="#fff"/>
      <path id="Path_103" data-name="Path 103" d="M33.054,12.356a3.182,3.182,0,1,1,3.181-3.182,3.186,3.186,0,0,1-3.181,3.182m0-5.228A2.046,2.046,0,1,0,35.1,9.174a2.048,2.048,0,0,0-2.045-2.045" transform="translate(-9.722 -1.95)" fill="#fff"/>
    </g>
  </g>
</svg>
