<svg xmlns="http://www.w3.org/2000/svg" xmlns:xlink="http://www.w3.org/1999/xlink" width="40.688" height="41.348" viewBox="0 0 40.688 41.348">
  <defs>
    <clipPath id="clip-path">
      <rect id="Rectangle_10" data-name="Rectangle 10" width="40.688" height="41.348" fill="#fff"/>
    </clipPath>
  </defs>
  <g id="Group_10" data-name="Group 10" transform="translate(0 0)">
    <g id="Group_9" data-name="Group 9" transform="translate(0 0)" clip-path="url(#clip-path)">
      <path id="Path_7" data-name="Path 7" d="M31.272,13.951a5.417,5.417,0,0,1,3.991,5.225V28.82H16.24V19.176a5.417,5.417,0,0,1,3.991-5.225l5.521,9.981Z" transform="translate(-5.408 -4.646)" fill="#fff"/>
      <path id="Path_8" data-name="Path 8" d="M33.014,5.02A5.02,5.02,0,1,1,27.994,0a5.02,5.02,0,0,1,5.02,5.02" transform="translate(-7.65 0)" fill="#fff"/>
      <path id="Path_9" data-name="Path 9" d="M39.5,38.027H1.189V36.046H39.5Zm.157-3.17H1.031A1.031,1.031,0,0,0,0,35.888v2.3a1.031,1.031,0,0,0,1.031,1.031H39.657a1.031,1.031,0,0,0,1.031-1.031v-2.3a1.031,1.031,0,0,0-1.031-1.031" transform="translate(0 -11.607)" fill="#fff"/>
      <path id="Path_10" data-name="Path 10" d="M8.526,34.6H3.44a1.461,1.461,0,0,1-1.459-1.459v-.384A1.461,1.461,0,0,1,3.44,31.293H8.526a.985.985,0,0,1,.985.984v1.334a.986.986,0,0,1-.985.985M3.44,32.35a.4.4,0,0,0-.4.4v.384a.4.4,0,0,0,.4.4H8.454V32.35Z" transform="translate(-0.66 -10.42)" fill="#fff"/>
      <path id="Path_11" data-name="Path 11" d="M8.526,30.832H3.44a1.461,1.461,0,0,1-1.459-1.459v-.384A1.461,1.461,0,0,1,3.44,27.53H8.526a.985.985,0,0,1,.985.984v1.334a.986.986,0,0,1-.985.985M3.44,28.587a.4.4,0,0,0-.4.4v.384a.4.4,0,0,0,.4.4H8.454V28.587Z" transform="translate(-0.66 -9.167)" fill="#fff"/>
      <path id="Path_12" data-name="Path 12" d="M8.526,27.069H3.44A1.461,1.461,0,0,1,1.981,25.61v-.384A1.461,1.461,0,0,1,3.44,23.767H8.526a.985.985,0,0,1,.985.984v1.334a.986.986,0,0,1-.985.985M3.44,24.824a.4.4,0,0,0-.4.4v.384a.4.4,0,0,0,.4.4H8.454V24.824Z" transform="translate(-0.66 -7.914)" fill="#fff"/>
      <path id="Path_13" data-name="Path 13" d="M55.292,33.044h-5.68V29.361a1.339,1.339,0,0,1,1.338-1.337h3.006a1.339,1.339,0,0,1,1.337,1.337ZM50.8,31.855h3.3V29.361a.149.149,0,0,0-.148-.148H50.95a.148.148,0,0,0-.149.148Z" transform="translate(-16.52 -9.332)" fill="#fff"/>
      <path id="Path_14" data-name="Path 14" d="M52.733,26.666l-1.312.178-.375-2.764a.25.25,0,0,1,.214-.281l.816-.111a.251.251,0,0,1,.281.214Z" transform="translate(-16.997 -7.887)" fill="#fff"/>
      <path id="Path_15" data-name="Path 15" d="M55.442,26.575l-1.309-.2.5-3.307a.25.25,0,0,1,.284-.209l.814.124a.248.248,0,0,1,.209.283Z" transform="translate(-18.025 -7.611)" fill="#fff"/>
      <path id="Path_16" data-name="Path 16" d="M34.736,51.431H15.449V46.543H34.736Zm.5-6.077H14.948a.688.688,0,0,0-.688.688v5.89a.688.688,0,0,0,.688.688H35.237a.688.688,0,0,0,.688-.688v-5.89a.688.688,0,0,0-.688-.688" transform="translate(-4.748 -15.102)" fill="#fff"/>
      <path id="Path_17" data-name="Path 17" d="M37.78,41.592V52.907a.707.707,0,0,1-.706.706H7.045a.707.707,0,0,1-.706-.706V41.592ZM38.968,40.4H5.15v12.5a1.9,1.9,0,0,0,1.895,1.9H37.073a1.9,1.9,0,0,0,1.9-1.9Z" transform="translate(-1.715 -13.454)" fill="#fff"/>
      <path id="Path_18" data-name="Path 18" d="M29.211,27.376l-2.561-4.61,1.83-4.38a.812.812,0,0,1,.736-.5.8.8,0,0,1,.752.474l1.956,4.268ZM27.823,22.7l1.4,2.523,1.513-2.649-1.5-3.267Z" transform="translate(-8.874 -5.956)" fill="#fff"/>
    </g>
  </g>
</svg>
