<svg id="Group_4" data-name="Group 4" xmlns="http://www.w3.org/2000/svg" xmlns:xlink="http://www.w3.org/1999/xlink" width="33.917" height="30.667" viewBox="0 0 33.917 30.667">
  <defs>
    <clipPath id="clip-path">
      <rect id="Rectangle_7" data-name="Rectangle 7" width="33.917" height="30.667" fill="#fff"/>
    </clipPath>
  </defs>
  <g id="Group_3" data-name="Group 3" clip-path="url(#clip-path)">
    <path id="Path_1" data-name="Path 1" d="M32.994,15.1H29.463a.635.635,0,0,0-.665.6V29.331a1.416,1.416,0,0,1-1.485,1.336H22.431a.634.634,0,0,1-.665-.6V22.525a2.96,2.96,0,0,0-3.094-2.783H15.247a2.96,2.96,0,0,0-3.094,2.783v7.543a.634.634,0,0,1-.665.6H6.6a1.42,1.42,0,0,1-1.485-1.336V15.7a.635.635,0,0,0-.665-.6H.918a.819.819,0,0,1-.625-1.431L16.331.222a.994.994,0,0,1,1.251,0L33.625,13.669a.819.819,0,0,1-.632,1.431" transform="translate(0 0)" fill="#fff"/>
  </g>
</svg>
