<svg xmlns="http://www.w3.org/2000/svg" xmlns:xlink="http://www.w3.org/1999/xlink" width="24.687" height="32.962" viewBox="0 0 24.687 32.962">
  <defs>
    <clipPath id="clip-path">
      <rect id="Rectangle_17" data-name="Rectangle 17" width="24.687" height="32.962" fill="#fff"/>
    </clipPath>
  </defs>
  <g id="Group_24" data-name="Group 24" transform="translate(0 0)">
    <g id="Group_23" data-name="Group 23" transform="translate(0 0)" clip-path="url(#clip-path)">
      <path id="Path_56" data-name="Path 56" d="M20.432,3.407a1.146,1.146,0,0,1-1.046-1.239l.126-1.5A.621.621,0,0,0,18.892,0H8.239a.622.622,0,0,0-.62.674l.126,1.5A1.147,1.147,0,0,1,6.7,3.407l-.893.075a.707.707,0,0,0-.648.7V5.76c0,.857.262,1.554.583,1.554H21.364c.322,0,.583-.7.583-1.554V4.106a.621.621,0,0,0-.57-.619Z" transform="translate(-1.21 0)" fill="#fff"/>
      <path id="Path_57" data-name="Path 57" d="M22.432,14.22l-2.158,2.159-.71-.711,2.158-2.158-2.158-2.157.71-.711L22.432,12.8l2.158-2.157.1.1V9.386a3.24,3.24,0,0,0-3.241-3.24h-.261V8.309A1.065,1.065,0,0,1,20.12,9.373H4.5A1.065,1.065,0,0,1,3.433,8.309V6.146H3.241A3.24,3.24,0,0,0,0,9.386v3.276a.233.233,0,0,1,.233-.233H2.652a.233.233,0,0,1,.233.233v.29a.232.232,0,0,1-.233.232H.233A.232.232,0,0,1,0,12.952v1.425a.232.232,0,0,1,.233-.232H2.652a.232.232,0,0,1,.233.232v.292a.232.232,0,0,1-.233.232H.233A.232.232,0,0,1,0,14.669v1.425a.232.232,0,0,1,.233-.232H2.652a.232.232,0,0,1,.233.232v.29a.233.233,0,0,1-.233.233H.233A.233.233,0,0,1,0,16.385v1.427a.232.232,0,0,1,.233-.232H2.652a.232.232,0,0,1,.233.232v.29a.233.233,0,0,1-.233.233H.233A.233.233,0,0,1,0,18.1v1.427A.233.233,0,0,1,.233,19.3H2.652a.233.233,0,0,1,.233.233v.29a.232.232,0,0,1-.233.232H.233A.232.232,0,0,1,0,19.819v1.427a.233.233,0,0,1,.233-.233H2.652a.233.233,0,0,1,.233.233v.29a.232.232,0,0,1-.233.232H.233A.232.232,0,0,1,0,21.536v1.426a.233.233,0,0,1,.233-.233H2.652a.233.233,0,0,1,.233.233v.29a.233.233,0,0,1-.233.233H.233A.233.233,0,0,1,0,23.252v1.426a.232.232,0,0,1,.233-.232H2.652a.232.232,0,0,1,.233.232v.291a.232.232,0,0,1-.233.232H.233A.232.232,0,0,1,0,24.969v1.426a.233.233,0,0,1,.233-.233H2.652a.233.233,0,0,1,.233.233v.29a.233.233,0,0,1-.233.233H.233A.233.233,0,0,1,0,26.685v1.427a.233.233,0,0,1,.233-.233H2.652a.233.233,0,0,1,.233.233v.29a.233.233,0,0,1-.233.233H.233A.233.233,0,0,1,0,28.4v2.76A3.24,3.24,0,0,0,3.241,34.4H21.446a3.24,3.24,0,0,0,3.241-3.24V16.28l-.1.1ZM7.513,10.642a3.067,3.067,0,1,1-3.067,3.066,3.066,3.066,0,0,1,3.067-3.066m1.84,21.467H5.674v-3.68h3.68Zm-1.1-5.865,3.005-5.205,3.006,5.205ZM4,28.154l-.674-.162c.024-.1,2.493-9.986,11.884-13.361l-1.886-2.105,7.323,1.359-6.18,4.157.912-2.737C6.4,18.575,4.026,28.056,4,28.154m11.443-8.819.1-.3A9.2,9.2,0,0,1,20.989,25l1.04-.752-.953,3.224L19.5,24.506l1.177.534a8.883,8.883,0,0,0-5.229-5.705m6.788,10.82-.331.331-1-1-1,1-.331-.331,1-1-1-1,.331-.331,1,1,1-1,.331.331-1,1Z" transform="translate(0 -1.441)" fill="#fff"/>
      <path id="Path_58" data-name="Path 58" d="M31.777,16.837V13.748l-1.544,1.545Z" transform="translate(-7.09 -3.224)" fill="#fff"/>
    </g>
  </g>
</svg>
