<svg id="Group_242" data-name="Group 242" xmlns="http://www.w3.org/2000/svg" xmlns:xlink="http://www.w3.org/1999/xlink" width="23" height="27" viewBox="0 0 23 27">
  <defs>
    <clipPath id="clip-path">
      <rect id="Rectangle_453" data-name="Rectangle 453" width="23" height="27" fill="#fff"/>
    </clipPath>
  </defs>
  <g id="Group_241" data-name="Group 241" clip-path="url(#clip-path)">
    <path id="Path_5726" data-name="Path 5726" d="M45.9,66.68A2.782,2.782,0,1,0,43.117,63.9,2.785,2.785,0,0,0,45.9,66.68" transform="translate(-40.783 -57.808)" fill="#fff"/>
    <path id="Path_5727" data-name="Path 5727" d="M0,27.067H22.736V0H0ZM9.961,3.9h8.228V5.522H9.961ZM5.116,2.165A3.925,3.925,0,1,1,1.191,6.09,3.929,3.929,0,0,1,5.116,2.165M19.3,24.537a1.289,1.289,0,0,1-1.82-.1l-1.869-2.095-1.515,1.7a1.431,1.431,0,0,1-2.409,1.474L8.6,21.926,5.518,25.511a1.431,1.431,0,1,1-2.169-1.868L8.6,17.54l3.849,4.47,3.162-3.545,3.793,4.252a1.291,1.291,0,0,1-.1,1.82m2.025-7.755H1.407V15.158H21.329Zm0-3.032H1.407V12.126H21.329Zm0-5.413H9.961V6.713H21.329Z" fill="#fff"/>
  </g>
</svg>
