<svg xmlns="http://www.w3.org/2000/svg" xmlns:xlink="http://www.w3.org/1999/xlink" width="35.974" height="29.305" viewBox="0 0 35.974 29.305">
  <defs>
    <clipPath id="clip-path">
      <rect id="Rectangle_14" data-name="Rectangle 14" width="35.974" height="29.305" transform="translate(0 0)" fill="#fff"/>
    </clipPath>
  </defs>
  <g id="Group_17" data-name="Group 17" clip-path="url(#clip-path)">
    <path id="Path_36" data-name="Path 36" d="M14.909,23A8.089,8.089,0,1,1,20.689,9.261q.563-.691,1.249-1.435a9.986,9.986,0,1,0,2.92,7.793c-.667-.082-1.3-.182-1.882-.291A8.091,8.091,0,0,1,14.909,23" transform="translate(-0.255 -0.256)" fill="#fff"/>
    <path id="Path_37" data-name="Path 37" d="M15.178,10.113a5.065,5.065,0,1,0,5.065,5.065c0-.105-.025-.2-.031-.306-.741-.22-1.194-.39-1.271-.419l-1.022-.391.531-.956c.04-.07.269-.473.667-1.078a5.033,5.033,0,0,0-3.938-1.915" transform="translate(-0.525 -0.525)" fill="#fff"/>
    <path id="Path_38" data-name="Path 38" d="M19.608,12a5.011,5.011,0,0,1,1.1,2.842,30.394,30.394,0,0,0,3.034.725c.008-.139.022-.277.022-.418a8.084,8.084,0,0,0-.154-1.556c-.973-.2-1.791-.41-2.386-.583.338-.507.819-1.183,1.423-1.944A8.138,8.138,0,0,0,21.451,9.5,30.34,30.34,0,0,0,19.608,12" transform="translate(-1.017 -0.493)" fill="#fff"/>
    <path id="Path_39" data-name="Path 39" d="M30.861,16.249a22.3,22.3,0,0,0,6.714-1.277l-.649-1.782a20.206,20.206,0,0,1-6.07,1.145c.023.333.051.664.051,1,0,.308-.027.609-.046.912" transform="translate(-1.601 -0.684)" fill="#fff"/>
    <path id="Path_40" data-name="Path 40" d="M33.163,2.851l-.649-1.782a22.28,22.28,0,0,0-6.026,3.4,14.8,14.8,0,0,1,1.236,1.452,20.243,20.243,0,0,1,5.439-3.068" transform="translate(-1.374 -0.056)" fill="#fff"/>
    <path id="Path_41" data-name="Path 41" d="M22.744,10.985c.38-.479.807-.989,1.288-1.52A10.021,10.021,0,0,0,22.8,7.984q-.685.742-1.248,1.435a8.215,8.215,0,0,1,1.192,1.565" transform="translate(-1.118 -0.414)" fill="#fff"/>
    <path id="Path_42" data-name="Path 42" d="M23.979,15.37c0,.141-.014.279-.021.418.584.109,1.214.209,1.881.292.017-.236.036-.47.036-.71a9.855,9.855,0,0,0-.083-1.225c-.709-.095-1.366-.21-1.966-.331a8.092,8.092,0,0,1,.154,1.556" transform="translate(-1.236 -0.717)" fill="#fff"/>
    <path id="Path_43" data-name="Path 43" d="M31.169,9.305a4.24,4.24,0,0,0,5.445,2.537l-.325-.89a3.3,3.3,0,1,1-2.257-6.2l-.324-.89a4.253,4.253,0,0,0-2.538,5.445" transform="translate(-1.604 -0.2)" fill="#fff"/>
    <path id="Path_44" data-name="Path 44" d="M33.685,8.569a1.717,1.717,0,0,0,2.2,1.026L34.711,6.367a1.718,1.718,0,0,0-1.026,2.2" transform="translate(-1.742 -0.33)" fill="#fff"/>
    <path id="Path_45" data-name="Path 45" d="M28.167,15.59c-.272,0-.539-.007-.8-.014a12.752,12.752,0,1,1-3.707-9.951q.688-.617,1.456-1.214A14.651,14.651,0,1,0,29.26,15.565c-.369.015-.734.025-1.093.025" transform="translate(0 0)" fill="#fff"/>
    <path id="Path_46" data-name="Path 46" d="M28.857,14.409c.026.328.05.656.05.99,0,.312-.025.617-.046.923.265.008.531.014.8.014.359,0,.724-.009,1.093-.025.019-.3.046-.6.046-.912,0-.338-.028-.668-.051-1-.646.027-1.28.031-1.9.011" transform="translate(-1.497 -0.747)" fill="#fff"/>
    <path id="Path_47" data-name="Path 47" d="M26.188,7.32q.685-.619,1.455-1.215a14.694,14.694,0,0,0-1.235-1.453q-.768.6-1.456,1.215A12.922,12.922,0,0,1,26.188,7.32" transform="translate(-1.294 -0.242)" fill="#fff"/>
  </g>
</svg>
