<svg xmlns="http://www.w3.org/2000/svg" xmlns:xlink="http://www.w3.org/1999/xlink" width="33.464" height="28.981" viewBox="0 0 33.464 28.981">
  <defs>
    <clipPath id="clip-path">
      <rect id="Rectangle_51" data-name="Rectangle 51" width="33.464" height="28.981" fill="#f5f5f5"/>
    </clipPath>
  </defs>
  <g id="Group_61" data-name="Group 61" clip-path="url(#clip-path)">
    <path id="Path_105" data-name="Path 105" d="M16.732,0,0,28.98H33.464ZM15.059,7.675h3.347a.669.669,0,0,1,.669.669L17.921,20.592c0,.37-.152.669-.34.669h-1.7c-.187,0-.34-.3-.34-.669L14.39,8.344a.669.669,0,0,1,.669-.669m1.673,19.777a2.275,2.275,0,1,1,2.276-2.276,2.276,2.276,0,0,1-2.276,2.276" transform="translate(0 0)" fill="#f5f5f5"/>
  </g>
</svg>
