<svg id="Group_28" data-name="Group 28" xmlns="http://www.w3.org/2000/svg" xmlns:xlink="http://www.w3.org/1999/xlink" width="28.767" height="32.381" viewBox="0 0 28.767 32.381">
  <defs>
    <clipPath id="clip-path">
      <rect id="Rectangle_19" data-name="Rectangle 19" width="28.767" height="32.382" fill="#fff"/>
    </clipPath>
  </defs>
  <g id="Group_27" data-name="Group 27" clip-path="url(#clip-path)">
    <path id="Path_64" data-name="Path 64" d="M128,5.008A5.008,5.008,0,1,1,122.989,0,5.008,5.008,0,0,1,128,5.008" transform="translate(-108.605)" fill="#fff"/>
    <path id="Path_65" data-name="Path 65" d="M28.767,240.971H18.488a2.969,2.969,0,0,0-1.9.684l-2.21,1.833-2.2-1.831a2.969,2.969,0,0,0-1.9-.685H0V229.33H10.282a2.969,2.969,0,0,1,1.9.685l2.2,1.831,2.2-1.831a2.968,2.968,0,0,1,1.9-.685H28.767Z" transform="translate(0 -211.106)" fill="#fff"/>
    <path id="Path_66" data-name="Path 66" d="M63.546,115.987a5.01,5.01,0,0,1-9.228,0,11.063,11.063,0,0,0-5.924,6.748H54.83a2.968,2.968,0,0,1,1.9.685l2.2,1.831,2.2-1.831a2.969,2.969,0,0,1,1.9-.685H69.47a11.063,11.063,0,0,0-5.924-6.748" transform="translate(-44.548 -106.77)" fill="#fff"/>
  </g>
</svg>
