<svg xmlns="http://www.w3.org/2000/svg" xmlns:xlink="http://www.w3.org/1999/xlink" width="38.123" height="33.784" viewBox="0 0 38.123 33.784">
  <defs>
    <clipPath id="clip-path">
      <rect id="Rectangle_52" data-name="Rectangle 52" width="38.123" height="33.784" fill="#f5f5f5"/>
    </clipPath>
  </defs>
  <g id="Group_63" data-name="Group 63" clip-path="url(#clip-path)">
    <path id="Path_106" data-name="Path 106" d="M32.282,33.783q-.65,0-1.3-.05A16.926,16.926,0,0,1,16.406,22.669a1.395,1.395,0,1,1,2.621-.954,14.1,14.1,0,1,0,0-9.647,1.395,1.395,0,1,1-2.621-.954A16.946,16.946,0,0,1,33.58.05a16.636,16.636,0,0,1,6.432,1.838,17.1,17.1,0,0,1,8.28,9.666,16.731,16.731,0,0,1-1.009,13.07,17.105,17.105,0,0,1-9.666,8.28,16.617,16.617,0,0,1-5.335.879" transform="translate(-11.048 0)" fill="#f5f5f5"/>
    <path id="Path_107" data-name="Path 107" d="M1.395,50.71a1.395,1.395,0,0,1,0-2.79l9.619-.021h0a1.395,1.395,0,0,1,0,2.79L1.4,50.71Z" transform="translate(0 -32.423)" fill="#f5f5f5"/>
    <path id="Path_108" data-name="Path 108" d="M34.653,44.711a22.766,22.766,0,0,0-6.43,3.6l1.288-3.585-1.3-3.579a22.746,22.746,0,0,0,6.445,3.567" transform="translate(-19.094 -27.851)" fill="#f5f5f5"/>
    <path id="Path_109" data-name="Path 109" d="M68.809,28.887a4.618,4.618,0,1,1-4.618-4.618,4.618,4.618,0,0,1,4.618,4.618" transform="translate(-40.326 -16.428)" fill="#f5f5f5"/>
    <path id="Path_110" data-name="Path 110" d="M62.225,52.281H60.839a5.562,5.562,0,0,1-7.581,0H51.872a2.906,2.906,0,0,0-2.851,2.942v3.5H65.076v-3.5a2.906,2.906,0,0,0-2.851-2.942" transform="translate(-33.183 -35.39)" fill="#f5f5f5"/>
  </g>
</svg>
